{"title":"BBC Proms 2012 - 1. First Night of the Proms","uid":7444149,"size":2568094630,"categoryP":"video","categoryS":"music_videos","magnet":"?xt=urn:btih:62f081c7b27d39efd6770ea4767efb01dd1fc1f9&amp;dn=BBC+Proms+2012+-+1.+First+Night+of+the+Proms&amp;tr=udp%3A%2F%2Ftracker.openbittorrent.com%3A80&amp;tr=udp%3A%2F%2Fopen.demonii.com%3A1337&amp;tr=udp%3A%2F%2Ftracker.coppersurfer.tk%3A6969&amp;tr=udp%3A%2F%2Fexodus.desync.com%3A6969","seeders":1,"leechers":1,"uploader":"deandominic","files":3,"time":1342310105,"description":"\nProm 1: First Night of the Proms\n\nThe 118th season of BBC Proms gets underway at the Royal Albert Hall with a spectacular concert of all-English music. In the year of the London Olympics there is something of a relay race around the podium with no less than four conductors passing the baton in the course of the evening - Sir Roger Norrington, Sir Mark Elder, Edward Gardner and Martyn Brabbins. Welsh bass-baritone Bryn Terfel is the soloist in Delius' evocative Sea Drift, and a quartet of Proms favourite singers feature in Elgar's Coronation Ode - Susan Gritton, Sarah Connolly, Robert Murray and Gerald Finley. Elgar's effervescent Cockaigne Overture, Tippett's Suite for the Birthday of Prince Charles and a brand new virtuosic curtain-raiser by Mark-Anthony Turnage complete the programme. The BBC Symphony Orchestra and Chorus take their traditional place on stage for a special First Night.\n\nMark-Anthony Turnage - Canon Fever (3 mins)\nElgar - Overture 'Cockaigne (In London Town)' (15 mins)\nDelius - Sea Drift (25 mins)\nTippett - Suite for the Birthday of Prince Charles (16 mins)\nElgar - Coronation Ode (33 mins)\n\nVideo\nID                                       : 1\nFormat                                   : AVC\nFormat/Info                              : Advanced Video Codec\nFormat profile                           : &lt;a class=&quot;__cf_email__&quot; href=&quot;/cdn-cgi/l/email-protection&quot; data-cfemail=&quot;7038191718303c445e41&quot;&gt;[email&amp;#160;protected]&lt;/a&gt;&lt;script cf-hash='f9e31' type=&quot;text/javascript&quot;&gt;\n/* &lt;![CDATA[ */!function(){try{var t=&quot;currentScript&quot;in document?document.currentScript:function(){for(var t=document.getElementsByTagName(&quot;script&quot;),e=t.length;e--;)if(t[e].getAttribute(&quot;cf-hash&quot;))return t[e]}();if(t&amp;&amp;t.previousSibling){var e,r,n,i,c=t.previousSibling,a=c.getAttribute(&quot;data-cfemail&quot;);if(a){for(e=&quot;&quot;,r=parseInt(a.substr(0,2),16),n=2;a.length-n;n+=2)i=parseInt(a.substr(n,2),16)^r,e+=String.fromCharCode(i);e=document.createTextNode(e),c.parentNode.replaceChild(e,c)}}}catch(u){}}();/* ]]&gt; */&lt;/script&gt;\nFormat settings, CABAC                   : Yes\nFormat settings, ReFrames                : 6 frames\nCodec ID                                 : avc1\nCodec ID/Info                            : Advanced Video Coding\nDuration                                 : 2h 6mn\nBit rate mode                            : Variable\nBit rate                                 : 2 607 Kbps\nMaximum bit rate                         : 3 500 Kbps\nWidth                                    : 1 280 pixels\nHeight                                   : 720 pixels\nDisplay aspect ratio                     : 16:9\nFrame rate mode                          : Constant\nFrame rate                               : 25.000 fps\nStandard                                 : PAL\nColor space                              : YUV\nChroma subsampling                       : 4:2:0\nBit depth                                : 8 bits\nScan type                                : Progressive\nBits/(Pixel*Frame)                       : 0.113\nStream size                              : 2.30 GiB (96%)\n\nAudio\nID                                       : 2\nFormat                                   : AAC\nFormat/Info                              : Advanced Audio Codec\nFormat profile                           : HE-AAC / LC\nCodec ID                                 : 40\nDuration                                 : 2h 6mn\nBit rate mode                            : Constant\nBit rate                                 : 96.0 Kbps\nChannel(s)                               : 2 channels\nChannel positions                        : Front: L R\nSampling rate                            : 48.0 KHz / 24.0 KHz\nCompression mode                         : Lossy\nStream size                              : 85.7 MiB (3%)\n","torrent":{"xt":"urn:btih:62f081c7b27d39efd6770ea4767efb01dd1fc1f9","amp;dn":"BBC+Proms+2012+-+1.+First+Night+of+the+Proms","amp;tr":["udp%3A%2F%2Ftracker.openbittorrent.com%3A80","udp%3A%2F%2Fopen.demonii.com%3A1337","udp%3A%2F%2Ftracker.coppersurfer.tk%3A6969","udp%3A%2F%2Fexodus.desync.com%3A6969"],"infoHash":"62f081c7b27d39efd6770ea4767efb01dd1fc1f9","infoHashBuffer":{"type":"Buffer","data":[98,240,129,199,178,125,57,239,214,119,14,164,118,126,251,1,221,31,193,249]},"announce":[],"urlList":[]}}